# xmcd
#
# Track frame offsets:
#	150
#	13182
#	26477
#	38107
#	51570
#	63602
#	74455
#	92147
#	106055
#	119897
#	134870
#	154992
#	168557
#	181792
#	197297
#	210020
#	223497
#	238322
#	256722
#	275650
#	288765
#	307157
#
# Disc length: 4319 seconds
#
# Revision: 0
# Processed by: cddbd v1.5.1PL2 Copyright (c) Steve Scherf et al.
# Submitted via: audiograbber 1.83.01
#
DISCID=5810dd16
DTITLE=йатеяима стамисг - ои вяусес епитувиес ( 82 - 95)
DYEAR=1995
DGENRE=каийа
TTITLE0=лустийе лоу еяыта
TTITLE1=тетоиес ыяес
TTITLE2=дем евы выяо екеухеяо
TTITLE3=пиасе лацйа т'ояцамо соу
TTITLE4=сто йоутоуйи тоу цабяг
TTITLE5=ти ыяаиос тупос еисаи
TTITLE6=се фгты се фгты
TTITLE7=т'астяа йаи та фыдиа
TTITLE8=дем еилаи еды
TTITLE9=етси с'ацапгса
TTITLE10=хее лоу ти ейама
TTITLE11=лацийес стицлес
TTITLE12=дем то яисйаяы
TTITLE13=адумалиес
TTITLE14=тыяа ти фгтас
TTITLE15=отам келе еяыта
TTITLE16=ле том еяыта соу
TTITLE17=амастатымолаи
TTITLE18=ма леимеис
TTITLE19=ма соу йамы лиа еяытгсг
TTITLE20=суцмылг йуяие поиос еисте
TTITLE21=еккгмес еиласте
EXTD=
EXTT0=
EXTT1=
EXTT2=
EXTT3=
EXTT4=
EXTT5=
EXTT6=
EXTT7=
EXTT8=
EXTT9=
EXTT10=
EXTT11=
EXTT12=
EXTT13=
EXTT14=
EXTT15=
EXTT16=
EXTT17=
EXTT18=
EXTT19=
EXTT20=
EXTT21=
PLAYORDER=
